<svg xmlns="http://www.w3.org/2000/svg" width="25" height="24" viewBox="0 0 25 24" fill="none">
<g clip-path="url(#clip0_4215_6127)">
<path d="M24.4822 12.5306L22.2322 14.7806C22.1626 14.8504 22.0798 14.9057 21.9888 14.9434C21.8977 14.9812 21.8002 15.0006 21.7016 15.0006C21.603 15.0006 21.5054 14.9812 21.4144 14.9434C21.3233 14.9057 21.2406 14.8504 21.171 14.7806L18.921 12.5306C18.7802 12.3899 18.7012 12.199 18.7012 12C18.7012 11.801 18.7802 11.6101 18.921 11.4694C19.0617 11.3286 19.2526 11.2496 19.4516 11.2496C19.6506 11.2496 19.8415 11.3286 19.9822 11.4694L20.9516 12.4397V12C20.9524 10.2531 20.3988 8.551 19.3703 7.13892C18.3419 5.72684 16.8917 4.67767 15.2288 4.14254C13.5659 3.60742 11.776 3.61396 10.117 4.16123C8.45806 4.7085 7.01563 5.76825 5.99753 7.18781C5.88141 7.34943 5.70585 7.4583 5.50946 7.49047C5.31308 7.52265 5.11196 7.47549 4.95034 7.35938C4.78872 7.24326 4.67985 7.0677 4.64768 6.87131C4.6155 6.67493 4.66266 6.4738 4.77878 6.31219C5.98205 4.63455 7.68679 3.38217 9.64742 2.73545C11.6081 2.08874 13.7234 2.08108 15.6886 2.71358C17.6539 3.34609 19.3677 4.58609 20.5831 6.25497C21.7984 7.92386 22.4527 9.93546 22.4516 12V12.4397L23.421 11.4694C23.5617 11.3286 23.7526 11.2496 23.9516 11.2496C24.1506 11.2496 24.3415 11.3286 24.4822 11.4694C24.6229 11.6101 24.702 11.801 24.702 12C24.702 12.199 24.6229 12.3899 24.4822 12.5306ZM20.6216 17.6869C19.418 19.3632 17.7135 20.6145 15.7535 21.2604C13.7935 21.9064 11.679 21.9138 9.71456 21.2816C7.75008 20.6493 6.03687 19.41 4.82156 17.7421C3.60625 16.0742 2.95151 14.0637 2.95159 12V11.5603L1.98221 12.5306C1.84148 12.6714 1.65061 12.7504 1.45159 12.7504C1.25257 12.7504 1.06169 12.6714 0.920964 12.5306C0.780233 12.3899 0.701172 12.199 0.701172 12C0.701172 11.801 0.780233 11.6101 0.920964 11.4694L3.17096 9.21938C3.24062 9.14964 3.32334 9.09432 3.41438 9.05658C3.50543 9.01884 3.60303 8.99941 3.70159 8.99941C3.80015 8.99941 3.89775 9.01884 3.98879 9.05658C4.07984 9.09432 4.16256 9.14964 4.23221 9.21938L6.48221 11.4694C6.62294 11.6101 6.70201 11.801 6.70201 12C6.70201 12.199 6.62294 12.3899 6.48221 12.5306C6.34148 12.6714 6.15061 12.7504 5.95159 12.7504C5.75257 12.7504 5.56169 12.6714 5.42096 12.5306L4.45159 11.5603V12C4.44981 14.0196 5.19207 15.969 6.53659 17.4759C7.37306 16.2638 8.54923 15.3261 9.91721 14.7806C9.18239 14.2019 8.64618 13.4085 8.38316 12.5108C8.12013 11.6132 8.14337 10.6559 8.44964 9.77208C8.75591 8.88825 9.32998 8.12183 10.092 7.5794C10.8541 7.03696 11.7662 6.74548 12.7016 6.74548C13.637 6.74548 14.5491 7.03696 15.3112 7.5794C16.0732 8.12183 16.6473 8.88825 16.9535 9.77208C17.2598 10.6559 17.283 11.6132 17.02 12.5108C16.757 13.4085 16.2208 14.2019 15.486 14.7806C16.8552 15.3262 18.0322 16.265 18.8685 17.4788C19.0581 17.2658 19.2368 17.0433 19.4038 16.8122C19.5199 16.6506 19.6955 16.5417 19.8918 16.5095C20.0882 16.4774 20.2893 16.5245 20.451 16.6406C20.6126 16.7567 20.7215 16.9323 20.7536 17.1287C20.7858 17.3251 20.7386 17.5262 20.6225 17.6878L20.6216 17.6869ZM12.7016 14.25C13.2949 14.25 13.875 14.0741 14.3683 13.7444C14.8616 13.4148 15.2462 12.9462 15.4732 12.3981C15.7003 11.8499 15.7597 11.2467 15.6439 10.6647C15.5282 10.0828 15.2425 9.54824 14.8229 9.12868C14.4034 8.70912 13.8688 8.4234 13.2869 8.30764C12.7049 8.19189 12.1017 8.2513 11.5535 8.47836C11.0054 8.70542 10.5368 9.08994 10.2072 9.58329C9.87754 10.0766 9.70159 10.6567 9.70159 11.25C9.70159 12.0457 10.0177 12.8087 10.5803 13.3713C11.1429 13.9339 11.9059 14.25 12.7016 14.25ZM12.7016 20.25C14.532 20.2476 16.3099 19.638 17.7566 18.5166C17.214 17.668 16.4666 16.9697 15.5832 16.486C14.6997 16.0023 13.7088 15.7487 12.7016 15.7487C11.6944 15.7487 10.7034 16.0023 9.82001 16.486C8.93659 16.9697 8.18915 17.668 7.64659 18.5166C9.09111 19.642 10.8704 20.2521 12.7016 20.25Z" fill="#E9C76D"/>
</g>
<defs>
<clipPath id="clip0_4215_6127">
<rect width="24" height="24" fill="white" transform="translate(0.701172)"/>
</clipPath>
</defs>
</svg>