<svg width="24" height="24" viewBox="0 0 24 24" fill="none" xmlns="http://www.w3.org/2000/svg">
<g id="Group">
<g id="Vector">
<path d="M20.3873 11.837C20.4188 11.8219 20.4518 11.8095 20.4862 11.801L22.5897 11.0323L20.4345 8.18637L12.8525 10.9689L14.8845 13.8479L20.3873 11.837ZM10.332 4.83469C10.1341 4.61025 10.149 4.26165 10.3653 4.05648C10.5817 3.85131 10.9178 3.86666 11.1156 4.09111L11.6949 4.74746L12.8679 3.29787C13.0566 3.06395 13.3927 3.03291 13.6182 3.22861C13.8437 3.4243 13.8737 3.7729 13.685 4.00682L12.122 5.9383L12.0719 5.99025C11.8556 6.19542 11.5195 6.18007 11.3216 5.95562L10.332 4.83469ZM12.3293 0.118042L13.0219 0.665927L13.8935 0.549947C14.1364 0.517929 14.3619 0.66168 14.4514 0.885473L14.7903 1.72413L15.5992 2.07501C15.8357 2.17661 15.9636 2.43537 15.9182 2.6866L15.8105 3.55825L16.3435 4.28321C16.494 4.4874 16.4852 4.76641 16.3388 4.95949L16.1296 5.24373L20.7753 7.005C20.8749 7.03702 20.9662 7.09942 21.0355 7.1909L23.8865 10.9555C23.9214 11.0019 23.9498 11.0548 23.9696 11.1133C24.0673 11.4008 23.9217 11.7164 23.6446 11.8177L21.1461 12.7305V20.182C21.1461 20.4359 20.981 20.6499 20.7564 20.7149L12.1816 23.9669C12.0597 24.0126 11.9318 24.0094 11.8187 23.9669L3.20633 20.7008C2.98994 20.6195 2.85544 20.4078 2.85544 20.182L2.85418 12.7305L0.37744 11.8255C0.316018 11.8063 0.257116 11.7749 0.203568 11.7315C-0.0276323 11.5429 -0.0679507 11.1953 0.113797 10.9555L2.96474 7.1909C3.02459 7.11281 3.10522 7.05008 3.20224 7.01349L7.87066 5.24373L7.65678 4.95296C7.50622 4.74877 7.51504 4.46976 7.6615 4.27668L8.18974 3.55825L8.07792 2.65426C8.04705 2.40237 8.18564 2.16845 8.40141 2.07566L9.20998 1.72413L9.54827 0.885147C9.64624 0.639791 9.8957 0.507148 10.1379 0.554194L10.9783 0.665927L11.6773 0.113141C11.8741 -0.0430243 12.1431 -0.0338765 12.3293 0.118042ZM15.8912 6.32839L15.9223 6.58191C15.9532 6.83381 15.8146 7.06773 15.5989 7.16051L14.7903 7.51205L14.452 8.35103C14.354 8.59638 14.1046 8.72903 13.8623 8.68198L13.0219 8.57025L12.323 9.12303C12.1261 9.2792 11.8571 9.27005 11.671 9.11813L10.9783 8.57025L10.1067 8.68623C9.86389 8.71824 9.63836 8.57449 9.5489 8.3507L9.20998 7.51205L8.40109 7.16116C8.16454 7.05956 8.03665 6.80081 8.08201 6.54957L8.10942 6.32872L4.95388 7.52479L12.0001 10.1103L19.0461 7.52446L15.8912 6.32839ZM12.5495 1.68035L12.0001 1.24583L11.4508 1.68035C11.3434 1.76464 11.2051 1.80744 11.0612 1.78849L10.3751 1.69734L10.1086 2.35794C10.0563 2.48829 9.9565 2.59806 9.82105 2.65622L9.18415 2.93261L9.26888 3.61935C9.29345 3.76538 9.26132 3.92122 9.16777 4.04831L8.74884 4.61809L9.16777 5.18786C9.24904 5.29927 9.2903 5.44269 9.27203 5.592L9.18415 6.30356L9.82105 6.57996C9.94673 6.63419 10.0526 6.73775 10.1086 6.87824L10.3751 7.53884L11.0372 7.45095C11.178 7.42547 11.3283 7.45879 11.4508 7.55582L12.0001 7.99034L12.5495 7.55582C12.6569 7.47153 12.7952 7.42874 12.9391 7.44769L13.6251 7.53884L13.8916 6.87824C13.9439 6.74788 14.0438 6.63811 14.1792 6.57996L14.8161 6.30356L14.7314 5.61683C14.7068 5.47079 14.7389 5.31495 14.8325 5.18786L15.2514 4.61809L14.8325 4.04831C14.7512 3.93691 14.71 3.79348 14.7282 3.64418L14.8161 2.93261L14.1792 2.65622C14.0535 2.60199 13.9477 2.49842 13.8916 2.35794L13.6251 1.69734L12.963 1.78522C12.8222 1.8107 12.672 1.77738 12.5495 1.68035ZM3.54652 11.8128L3.5588 11.817L3.57109 11.8216L3.58337 11.8265L9.1158 13.8479L11.1478 10.9689L3.56542 8.18669L1.4106 11.0323L3.54652 11.8128ZM3.92135 13.1206V19.7968L11.4665 22.6581V12.3868L9.74955 14.8195C9.61631 15.0191 9.3659 15.1102 9.1347 15.0256L3.92135 13.1206ZM12.5337 12.3868V22.6581L20.0789 19.7968V13.1206L14.8656 15.0256C14.6501 15.1044 14.4013 15.0322 14.2592 14.8312L12.5337 12.3868Z" fill="#ffffffbf"/>
<path d="M20.3873 11.837C20.4188 11.8219 20.4518 11.8095 20.4862 11.801L22.5897 11.0323L20.4345 8.18637L12.8525 10.9689L14.8845 13.8479L20.3873 11.837ZM10.332 4.83469C10.1341 4.61025 10.149 4.26165 10.3653 4.05648C10.5817 3.85131 10.9178 3.86666 11.1156 4.09111L11.6949 4.74746L12.8679 3.29787C13.0566 3.06395 13.3927 3.03291 13.6182 3.22861C13.8437 3.4243 13.8737 3.7729 13.685 4.00682L12.122 5.9383L12.0719 5.99025C11.8556 6.19542 11.5195 6.18007 11.3216 5.95562L10.332 4.83469ZM12.3293 0.118042L13.0219 0.665927L13.8935 0.549947C14.1364 0.517929 14.3619 0.66168 14.4514 0.885473L14.7903 1.72413L15.5992 2.07501C15.8357 2.17661 15.9636 2.43537 15.9182 2.6866L15.8105 3.55825L16.3435 4.28321C16.494 4.4874 16.4852 4.76641 16.3388 4.95949L16.1296 5.24373L20.7753 7.005C20.8749 7.03702 20.9662 7.09942 21.0355 7.1909L23.8865 10.9555C23.9214 11.0019 23.9498 11.0548 23.9696 11.1133C24.0673 11.4008 23.9217 11.7164 23.6446 11.8177L21.1461 12.7305V20.182C21.1461 20.4359 20.981 20.6499 20.7564 20.7149L12.1816 23.9669C12.0597 24.0126 11.9318 24.0094 11.8187 23.9669L3.20633 20.7008C2.98994 20.6195 2.85544 20.4078 2.85544 20.182L2.85418 12.7305L0.37744 11.8255C0.316018 11.8063 0.257116 11.7749 0.203568 11.7315C-0.0276323 11.5429 -0.0679507 11.1953 0.113797 10.9555L2.96474 7.1909C3.02459 7.11281 3.10522 7.05008 3.20224 7.01349L7.87066 5.24373L7.65678 4.95296C7.50622 4.74877 7.51504 4.46976 7.6615 4.27668L8.18974 3.55825L8.07792 2.65426C8.04705 2.40237 8.18564 2.16845 8.40141 2.07566L9.20998 1.72413L9.54827 0.885147C9.64624 0.639791 9.8957 0.507148 10.1379 0.554194L10.9783 0.665927L11.6773 0.113141C11.8741 -0.0430243 12.1431 -0.0338765 12.3293 0.118042ZM15.8912 6.32839L15.9223 6.58191C15.9532 6.83381 15.8146 7.06773 15.5989 7.16051L14.7903 7.51205L14.452 8.35103C14.354 8.59638 14.1046 8.72903 13.8623 8.68198L13.0219 8.57025L12.323 9.12303C12.1261 9.2792 11.8571 9.27005 11.671 9.11813L10.9783 8.57025L10.1067 8.68623C9.86389 8.71824 9.63836 8.57449 9.5489 8.3507L9.20998 7.51205L8.40109 7.16116C8.16454 7.05956 8.03665 6.80081 8.08201 6.54957L8.10942 6.32872L4.95388 7.52479L12.0001 10.1103L19.0461 7.52446L15.8912 6.32839ZM12.5495 1.68035L12.0001 1.24583L11.4508 1.68035C11.3434 1.76464 11.2051 1.80744 11.0612 1.78849L10.3751 1.69734L10.1086 2.35794C10.0563 2.48829 9.9565 2.59806 9.82105 2.65622L9.18415 2.93261L9.26888 3.61935C9.29345 3.76538 9.26132 3.92122 9.16777 4.04831L8.74884 4.61809L9.16777 5.18786C9.24904 5.29927 9.2903 5.44269 9.27203 5.592L9.18415 6.30356L9.82105 6.57996C9.94673 6.63419 10.0526 6.73775 10.1086 6.87824L10.3751 7.53884L11.0372 7.45095C11.178 7.42547 11.3283 7.45879 11.4508 7.55582L12.0001 7.99034L12.5495 7.55582C12.6569 7.47153 12.7952 7.42874 12.9391 7.44769L13.6251 7.53884L13.8916 6.87824C13.9439 6.74788 14.0438 6.63811 14.1792 6.57996L14.8161 6.30356L14.7314 5.61683C14.7068 5.47079 14.7389 5.31495 14.8325 5.18786L15.2514 4.61809L14.8325 4.04831C14.7512 3.93691 14.71 3.79348 14.7282 3.64418L14.8161 2.93261L14.1792 2.65622C14.0535 2.60199 13.9477 2.49842 13.8916 2.35794L13.6251 1.69734L12.963 1.78522C12.8222 1.8107 12.672 1.77738 12.5495 1.68035ZM3.54652 11.8128L3.5588 11.817L3.57109 11.8216L3.58337 11.8265L9.1158 13.8479L11.1478 10.9689L3.56542 8.18669L1.4106 11.0323L3.54652 11.8128ZM3.92135 13.1206V19.7968L11.4665 22.6581V12.3868L9.74955 14.8195C9.61631 15.0191 9.3659 15.1102 9.1347 15.0256L3.92135 13.1206ZM12.5337 12.3868V22.6581L20.0789 19.7968V13.1206L14.8656 15.0256C14.6501 15.1044 14.4013 15.0322 14.2592 14.8312L12.5337 12.3868Z" fill="white" fill-opacity="0.65"/>
</g>
</g>
</svg>
