<svg width="26" height="22" viewBox="0 0 26 22" fill="none" xmlns="http://www.w3.org/2000/svg">
<g id="Frame 4">
<g id="Vector">
<path fill-rule="evenodd" clip-rule="evenodd" d="M1.97008 11.0167H5.21118V0.861877C5.21118 0.765901 5.25109 0.673856 5.32213 0.605991C5.39317 0.538126 5.48952 0.5 5.58999 0.5H13.822C13.9225 0.5 14.0189 0.538121 14.09 0.605982C14.161 0.673842 14.201 0.765886 14.201 0.861877V13.5747H16.5186V7.40003C16.5186 7.30401 16.5585 7.21192 16.6296 7.14403C16.7007 7.07613 16.7971 7.03799 16.8976 7.03799H24.0385C24.1389 7.03824 24.235 7.0765 24.3059 7.14437C24.3767 7.21223 24.4165 7.30417 24.4165 7.40003V20.7761H25.129C25.2281 20.7781 25.3224 20.8171 25.3918 20.8847C25.4612 20.9524 25.5 21.0433 25.5 21.138C25.5 21.2327 25.4612 21.3237 25.3918 21.3913C25.3224 21.459 25.2281 21.498 25.129 21.5H0.878815C0.829068 21.5 0.779808 21.4906 0.733848 21.4725C0.687889 21.4543 0.646129 21.4276 0.610952 21.394C0.575776 21.3604 0.547873 21.3205 0.528836 21.2766C0.509798 21.2327 0.5 21.1856 0.5 21.1381C0.5 21.0421 0.539905 20.9501 0.610942 20.8822C0.681979 20.8143 0.778332 20.7761 0.878815 20.7761H1.59109V11.3788C1.59114 11.2828 1.63109 11.1907 1.70215 11.1229C1.77322 11.055 1.86959 11.0169 1.97008 11.0169V11.0167ZM5.21118 11.7406H2.34972V20.7755H5.21118V11.7406ZM11.6224 14.2988V20.7755H18.6996V14.2988H11.6224ZM19.4576 13.9367V20.7755H23.6592V7.76127H17.2757V13.5749H19.0786C19.1791 13.5749 19.2755 13.613 19.3466 13.6809C19.4177 13.7488 19.4576 13.8409 19.4576 13.9369V13.9367ZM21.3858 11.9394C21.3848 11.8912 21.3938 11.8434 21.4124 11.7986C21.4309 11.7538 21.4587 11.7129 21.494 11.6785C21.5292 11.6441 21.5714 11.6167 21.6179 11.5981C21.6644 11.5794 21.7143 11.5698 21.7647 11.5698C21.8152 11.5698 21.8651 11.5794 21.9116 11.5981C21.9581 11.6167 22.0002 11.6441 22.0355 11.6785C22.0708 11.7129 22.0985 11.7538 22.1171 11.7986C22.1357 11.8434 22.1447 11.8912 22.1436 11.9394V12.731C22.1447 12.7792 22.1357 12.8271 22.1171 12.8719C22.0985 12.9167 22.0708 12.9575 22.0355 12.9919C22.0002 13.0263 21.9581 13.0537 21.9116 13.0724C21.8651 13.091 21.8152 13.1006 21.7647 13.1006C21.7143 13.1006 21.6644 13.091 21.6179 13.0724C21.5714 13.0537 21.5292 13.0263 21.494 12.9919C21.4587 12.9575 21.4309 12.9167 21.4124 12.8719C21.3938 12.8271 21.3848 12.7792 21.3858 12.731V11.9394ZM18.7908 11.9394C18.7908 11.8434 18.8307 11.7513 18.9018 11.6834C18.9729 11.6155 19.0693 11.5774 19.1698 11.5774C19.2703 11.5774 19.3667 11.6155 19.4378 11.6834C19.5089 11.7513 19.5488 11.8434 19.5488 11.9394V12.731C19.5488 12.827 19.5089 12.9191 19.4378 12.987C19.3667 13.0549 19.2703 13.0931 19.1698 13.0931C19.0693 13.0931 18.9729 13.0549 18.9018 12.987C18.8307 12.9191 18.7908 12.827 18.7908 12.731V11.9394ZM18.7908 8.67042C18.7908 8.5744 18.8307 8.48232 18.9018 8.41442C18.9729 8.34653 19.0693 8.30838 19.1698 8.30838C19.2703 8.30838 19.3667 8.34653 19.4378 8.41442C19.5089 8.48232 19.5488 8.5744 19.5488 8.67042V9.46218C19.5488 9.5582 19.5089 9.65029 19.4378 9.71818C19.3667 9.78608 19.2703 9.82422 19.1698 9.82422C19.0693 9.82422 18.9729 9.78608 18.9018 9.71818C18.8307 9.65029 18.7908 9.5582 18.7908 9.46218V8.67026V8.67042ZM21.3858 8.67042C21.3848 8.62225 21.3938 8.57436 21.4124 8.52956C21.4309 8.48476 21.4587 8.44395 21.494 8.40953C21.5292 8.3751 21.5714 8.34775 21.6179 8.32908C21.6644 8.31041 21.7143 8.30079 21.7647 8.30079C21.8152 8.30079 21.8651 8.31041 21.9116 8.32908C21.9581 8.34775 22.0002 8.3751 22.0355 8.40953C22.0708 8.44395 22.0985 8.48476 22.1171 8.52956C22.1357 8.57436 22.1447 8.62225 22.1436 8.67042V9.46218C22.1447 9.51035 22.1357 9.55824 22.1171 9.60304C22.0985 9.64784 22.0708 9.68865 22.0355 9.72308C22.0002 9.7575 21.9581 9.78485 21.9116 9.80352C21.8651 9.8222 21.8152 9.83181 21.7647 9.83181C21.7143 9.83181 21.6644 9.8222 21.6179 9.80352C21.5714 9.78485 21.5292 9.7575 21.494 9.72308C21.4587 9.68865 21.4309 9.64784 21.4124 9.60304C21.3938 9.55824 21.3848 9.51035 21.3858 9.46218V8.67026V8.67042ZM16.4754 16.6448C16.4744 16.5966 16.4834 16.5487 16.5019 16.5039C16.5205 16.4591 16.5482 16.4183 16.5835 16.3839C16.6188 16.3495 16.661 16.3221 16.7074 16.3034C16.7539 16.2848 16.8039 16.2751 16.8543 16.2751C16.9048 16.2751 16.9547 16.2848 17.0012 16.3034C17.0477 16.3221 17.0898 16.3495 17.1251 16.3839C17.1604 16.4183 17.1881 16.4591 17.2067 16.5039C17.2253 16.5487 17.2343 16.5966 17.2332 16.6448V17.4365C17.2311 17.5312 17.1903 17.6213 17.1195 17.6876C17.0486 17.7539 16.9534 17.791 16.8543 17.791C16.7552 17.791 16.66 17.7539 16.5892 17.6876C16.5183 17.6213 16.4775 17.5312 16.4754 17.4365V16.6448ZM13.0889 16.6448C13.0879 16.5966 13.0969 16.5487 13.1155 16.5039C13.134 16.4591 13.1618 16.4183 13.197 16.3839C13.2323 16.3495 13.2745 16.3221 13.321 16.3034C13.3675 16.2848 13.4174 16.2751 13.4678 16.2751C13.5183 16.2751 13.5682 16.2848 13.6147 16.3034C13.6612 16.3221 13.7033 16.3495 13.7386 16.3839C13.7739 16.4183 13.8016 16.4591 13.8202 16.5039C13.8388 16.5487 13.8478 16.5966 13.8467 16.6448V17.4365C13.8446 17.5312 13.8038 17.6213 13.733 17.6876C13.6621 17.7539 13.567 17.791 13.4678 17.791C13.3687 17.791 13.2735 17.7539 13.2027 17.6876C13.1318 17.6213 13.091 17.5312 13.0889 17.4365V16.6448ZM21.3858 15.2084C21.3848 15.1602 21.3938 15.1124 21.4124 15.0676C21.4309 15.0228 21.4587 14.9819 21.494 14.9475C21.5292 14.9131 21.5714 14.8857 21.6179 14.8671C21.6644 14.8484 21.7143 14.8388 21.7647 14.8388C21.8152 14.8388 21.8651 14.8484 21.9116 14.8671C21.9581 14.8857 22.0002 14.9131 22.0355 14.9475C22.0708 14.9819 22.0985 15.0228 22.1171 15.0676C22.1357 15.1124 22.1447 15.1602 22.1436 15.2084V16.001C22.1416 16.0957 22.1007 16.1858 22.0299 16.252C21.9591 16.3183 21.8639 16.3554 21.7647 16.3554C21.6656 16.3554 21.5704 16.3183 21.4996 16.252C21.4287 16.1858 21.3879 16.0957 21.3858 16.001V15.2084ZM11.0198 4.5864V3.79464C11.0198 3.69865 11.0597 3.60659 11.1307 3.5387C11.2018 3.47081 11.2981 3.43265 11.3986 3.4326C11.4991 3.4326 11.5955 3.47075 11.6666 3.53864C11.7376 3.60654 11.7776 3.69862 11.7776 3.79464V4.5864C11.7776 4.68242 11.7376 4.77451 11.6666 4.8424C11.5955 4.9103 11.4991 4.94844 11.3986 4.94844C11.2981 4.9484 11.2018 4.91024 11.1307 4.84235C11.0597 4.77446 11.0198 4.68239 11.0198 4.5864ZM11.0198 7.85556V7.06379C11.0187 7.01562 11.0277 6.96773 11.0463 6.92294C11.0649 6.87814 11.0926 6.83733 11.1279 6.8029C11.1632 6.76848 11.2053 6.74113 11.2518 6.72245C11.2983 6.70378 11.3482 6.69417 11.3987 6.69417C11.4491 6.69417 11.499 6.70378 11.5455 6.72245C11.592 6.74113 11.6342 6.76848 11.6695 6.8029C11.7047 6.83733 11.7325 6.87814 11.7511 6.92294C11.7696 6.96773 11.7786 7.01562 11.7776 7.06379V7.85556C11.7786 7.90373 11.7696 7.95162 11.7511 7.99642C11.7325 8.04122 11.7047 8.08203 11.6695 8.11645C11.6342 8.15088 11.592 8.17823 11.5455 8.1969C11.499 8.21557 11.4491 8.22519 11.3987 8.22519C11.3482 8.22519 11.2983 8.21557 11.2518 8.1969C11.2053 8.17823 11.1632 8.15088 11.1279 8.11645C11.0926 8.08203 11.0649 8.04122 11.0463 7.99642C11.0277 7.95162 11.0187 7.90373 11.0198 7.85556ZM8.39175 14.3937C8.38967 14.4884 8.34884 14.5785 8.27801 14.6448C8.20718 14.711 8.11199 14.7482 8.01286 14.7482C7.91372 14.7482 7.81853 14.711 7.7477 14.6448C7.67687 14.5785 7.63604 14.4884 7.63396 14.3937V13.6019C7.6329 13.5538 7.64192 13.5059 7.66048 13.4611C7.67905 13.4163 7.70679 13.3755 7.74208 13.3411C7.77737 13.3066 7.8195 13.2793 7.86599 13.2606C7.91249 13.2419 7.96242 13.2323 8.01286 13.2323C8.06329 13.2323 8.11322 13.2419 8.15972 13.2606C8.20622 13.2793 8.24834 13.3066 8.28363 13.3411C8.31892 13.3755 8.34666 13.4163 8.36523 13.4611C8.38379 13.5059 8.39281 13.5538 8.39175 13.6019V14.3937ZM8.39175 11.1246C8.39281 11.1727 8.38379 11.2206 8.36523 11.2654C8.34666 11.3102 8.31892 11.351 8.28363 11.3854C8.24834 11.4199 8.20622 11.4472 8.15972 11.4659C8.11322 11.4846 8.06329 11.4942 8.01286 11.4942C7.96242 11.4942 7.91249 11.4846 7.86599 11.4659C7.8195 11.4472 7.77737 11.4199 7.74208 11.3854C7.70679 11.351 7.67905 11.3102 7.66048 11.2654C7.64192 11.2206 7.6329 11.1727 7.63396 11.1246V10.3328C7.6329 10.2846 7.64192 10.2367 7.66048 10.1919C7.67905 10.1471 7.70679 10.1063 7.74208 10.0719C7.77737 10.0375 7.8195 10.0101 7.86599 9.99145C7.91249 9.97278 7.96242 9.96316 8.01286 9.96316C8.06329 9.96316 8.11322 9.97278 8.15972 9.99145C8.20622 10.0101 8.24834 10.0375 8.28363 10.0719C8.31892 10.1063 8.34666 10.1471 8.36523 10.1919C8.38379 10.2367 8.39281 10.2846 8.39175 10.3328V11.1246ZM8.01277 8.2176C7.91229 8.21755 7.81594 8.17939 7.7449 8.1115C7.67386 8.04361 7.63396 7.95155 7.63396 7.85556V7.06379C7.6329 7.01562 7.64192 6.96773 7.66048 6.92294C7.67905 6.87814 7.70679 6.83733 7.74208 6.8029C7.77737 6.76848 7.8195 6.74113 7.86599 6.72245C7.91249 6.70378 7.96242 6.69417 8.01286 6.69417C8.06329 6.69417 8.11322 6.70378 8.15972 6.72245C8.20622 6.74113 8.24834 6.76848 8.28363 6.8029C8.31892 6.83733 8.34666 6.87814 8.36523 6.92294C8.38379 6.96773 8.39281 7.01562 8.39175 7.06379V7.85556C8.39175 7.95158 8.35183 8.04366 8.28075 8.11156C8.20968 8.17945 8.11328 8.2176 8.01277 8.2176ZM11.0198 11.1246V10.3328C11.0187 10.2846 11.0277 10.2367 11.0463 10.1919C11.0649 10.1471 11.0926 10.1063 11.1279 10.0719C11.1632 10.0375 11.2053 10.0101 11.2518 9.99145C11.2983 9.97278 11.3482 9.96316 11.3987 9.96316C11.4491 9.96316 11.499 9.97278 11.5455 9.99145C11.592 10.0101 11.6342 10.0375 11.6695 10.0719C11.7047 10.1063 11.7325 10.1471 11.7511 10.1919C11.7696 10.2367 11.7786 10.2846 11.7776 10.3328V11.1246C11.7786 11.1727 11.7696 11.2206 11.7511 11.2654C11.7325 11.3102 11.7047 11.351 11.6695 11.3854C11.6342 11.4199 11.592 11.4472 11.5455 11.4659C11.499 11.4846 11.4491 11.4942 11.3987 11.4942C11.3482 11.4942 11.2983 11.4846 11.2518 11.4659C11.2053 11.4472 11.1632 11.4199 11.1279 11.3854C11.0926 11.351 11.0649 11.3102 11.0463 11.2654C11.0277 11.2206 11.0187 11.1727 11.0198 11.1246ZM8.01277 4.94844C7.91229 4.9484 7.81594 4.91024 7.7449 4.84235C7.67386 4.77446 7.63396 4.68239 7.63396 4.5864V3.79464C7.63396 3.69865 7.67386 3.60659 7.7449 3.5387C7.81594 3.47081 7.91229 3.43265 8.01277 3.4326C8.11328 3.4326 8.20968 3.47075 8.28075 3.53864C8.35183 3.60654 8.39175 3.69862 8.39175 3.79464V4.5864C8.39175 4.68242 8.35183 4.77451 8.28075 4.8424C8.20968 4.9103 8.11328 4.94844 8.01277 4.94844ZM8.39175 17.6627C8.39281 17.7109 8.38379 17.7588 8.36523 17.8036C8.34666 17.8484 8.31892 17.8892 8.28363 17.9236C8.24834 17.958 8.20622 17.9854 8.15972 18.004C8.11322 18.0227 8.06329 18.0323 8.01286 18.0323C7.96242 18.0323 7.91249 18.0227 7.86599 18.004C7.8195 17.9854 7.77737 17.958 7.74208 17.9236C7.70679 17.8892 7.67905 17.8484 7.66048 17.8036C7.64192 17.7588 7.6329 17.7109 7.63396 17.6627V16.8709C7.6329 16.8228 7.64192 16.7749 7.66048 16.7301C7.67905 16.6853 7.70679 16.6445 7.74208 16.61C7.77737 16.5756 7.8195 16.5483 7.86599 16.5296C7.91249 16.5109 7.96242 16.5013 8.01286 16.5013C8.06329 16.5013 8.11322 16.5109 8.15972 16.5296C8.20622 16.5483 8.24834 16.5756 8.28363 16.61C8.31892 16.6445 8.34666 16.6853 8.36523 16.7301C8.38379 16.7749 8.39281 16.8228 8.39175 16.8709V17.6627Z" fill="#ffffffbf"/>
<path fill-rule="evenodd" clip-rule="evenodd" d="M1.97008 11.0167H5.21118V0.861877C5.21118 0.765901 5.25109 0.673856 5.32213 0.605991C5.39317 0.538126 5.48952 0.5 5.58999 0.5H13.822C13.9225 0.5 14.0189 0.538121 14.09 0.605982C14.161 0.673842 14.201 0.765886 14.201 0.861877V13.5747H16.5186V7.40003C16.5186 7.30401 16.5585 7.21192 16.6296 7.14403C16.7007 7.07613 16.7971 7.03799 16.8976 7.03799H24.0385C24.1389 7.03824 24.235 7.0765 24.3059 7.14437C24.3767 7.21223 24.4165 7.30417 24.4165 7.40003V20.7761H25.129C25.2281 20.7781 25.3224 20.8171 25.3918 20.8847C25.4612 20.9524 25.5 21.0433 25.5 21.138C25.5 21.2327 25.4612 21.3237 25.3918 21.3913C25.3224 21.459 25.2281 21.498 25.129 21.5H0.878815C0.829068 21.5 0.779808 21.4906 0.733848 21.4725C0.687889 21.4543 0.646129 21.4276 0.610952 21.394C0.575776 21.3604 0.547873 21.3205 0.528836 21.2766C0.509798 21.2327 0.5 21.1856 0.5 21.1381C0.5 21.0421 0.539905 20.9501 0.610942 20.8822C0.681979 20.8143 0.778332 20.7761 0.878815 20.7761H1.59109V11.3788C1.59114 11.2828 1.63109 11.1907 1.70215 11.1229C1.77322 11.055 1.86959 11.0169 1.97008 11.0169V11.0167ZM5.21118 11.7406H2.34972V20.7755H5.21118V11.7406ZM11.6224 14.2988V20.7755H18.6996V14.2988H11.6224ZM19.4576 13.9367V20.7755H23.6592V7.76127H17.2757V13.5749H19.0786C19.1791 13.5749 19.2755 13.613 19.3466 13.6809C19.4177 13.7488 19.4576 13.8409 19.4576 13.9369V13.9367ZM21.3858 11.9394C21.3848 11.8912 21.3938 11.8434 21.4124 11.7986C21.4309 11.7538 21.4587 11.7129 21.494 11.6785C21.5292 11.6441 21.5714 11.6167 21.6179 11.5981C21.6644 11.5794 21.7143 11.5698 21.7647 11.5698C21.8152 11.5698 21.8651 11.5794 21.9116 11.5981C21.9581 11.6167 22.0002 11.6441 22.0355 11.6785C22.0708 11.7129 22.0985 11.7538 22.1171 11.7986C22.1357 11.8434 22.1447 11.8912 22.1436 11.9394V12.731C22.1447 12.7792 22.1357 12.8271 22.1171 12.8719C22.0985 12.9167 22.0708 12.9575 22.0355 12.9919C22.0002 13.0263 21.9581 13.0537 21.9116 13.0724C21.8651 13.091 21.8152 13.1006 21.7647 13.1006C21.7143 13.1006 21.6644 13.091 21.6179 13.0724C21.5714 13.0537 21.5292 13.0263 21.494 12.9919C21.4587 12.9575 21.4309 12.9167 21.4124 12.8719C21.3938 12.8271 21.3848 12.7792 21.3858 12.731V11.9394ZM18.7908 11.9394C18.7908 11.8434 18.8307 11.7513 18.9018 11.6834C18.9729 11.6155 19.0693 11.5774 19.1698 11.5774C19.2703 11.5774 19.3667 11.6155 19.4378 11.6834C19.5089 11.7513 19.5488 11.8434 19.5488 11.9394V12.731C19.5488 12.827 19.5089 12.9191 19.4378 12.987C19.3667 13.0549 19.2703 13.0931 19.1698 13.0931C19.0693 13.0931 18.9729 13.0549 18.9018 12.987C18.8307 12.9191 18.7908 12.827 18.7908 12.731V11.9394ZM18.7908 8.67042C18.7908 8.5744 18.8307 8.48232 18.9018 8.41442C18.9729 8.34653 19.0693 8.30838 19.1698 8.30838C19.2703 8.30838 19.3667 8.34653 19.4378 8.41442C19.5089 8.48232 19.5488 8.5744 19.5488 8.67042V9.46218C19.5488 9.5582 19.5089 9.65029 19.4378 9.71818C19.3667 9.78608 19.2703 9.82422 19.1698 9.82422C19.0693 9.82422 18.9729 9.78608 18.9018 9.71818C18.8307 9.65029 18.7908 9.5582 18.7908 9.46218V8.67026V8.67042ZM21.3858 8.67042C21.3848 8.62225 21.3938 8.57436 21.4124 8.52956C21.4309 8.48476 21.4587 8.44395 21.494 8.40953C21.5292 8.3751 21.5714 8.34775 21.6179 8.32908C21.6644 8.31041 21.7143 8.30079 21.7647 8.30079C21.8152 8.30079 21.8651 8.31041 21.9116 8.32908C21.9581 8.34775 22.0002 8.3751 22.0355 8.40953C22.0708 8.44395 22.0985 8.48476 22.1171 8.52956C22.1357 8.57436 22.1447 8.62225 22.1436 8.67042V9.46218C22.1447 9.51035 22.1357 9.55824 22.1171 9.60304C22.0985 9.64784 22.0708 9.68865 22.0355 9.72308C22.0002 9.7575 21.9581 9.78485 21.9116 9.80352C21.8651 9.8222 21.8152 9.83181 21.7647 9.83181C21.7143 9.83181 21.6644 9.8222 21.6179 9.80352C21.5714 9.78485 21.5292 9.7575 21.494 9.72308C21.4587 9.68865 21.4309 9.64784 21.4124 9.60304C21.3938 9.55824 21.3848 9.51035 21.3858 9.46218V8.67026V8.67042ZM16.4754 16.6448C16.4744 16.5966 16.4834 16.5487 16.5019 16.5039C16.5205 16.4591 16.5482 16.4183 16.5835 16.3839C16.6188 16.3495 16.661 16.3221 16.7074 16.3034C16.7539 16.2848 16.8039 16.2751 16.8543 16.2751C16.9048 16.2751 16.9547 16.2848 17.0012 16.3034C17.0477 16.3221 17.0898 16.3495 17.1251 16.3839C17.1604 16.4183 17.1881 16.4591 17.2067 16.5039C17.2253 16.5487 17.2343 16.5966 17.2332 16.6448V17.4365C17.2311 17.5312 17.1903 17.6213 17.1195 17.6876C17.0486 17.7539 16.9534 17.791 16.8543 17.791C16.7552 17.791 16.66 17.7539 16.5892 17.6876C16.5183 17.6213 16.4775 17.5312 16.4754 17.4365V16.6448ZM13.0889 16.6448C13.0879 16.5966 13.0969 16.5487 13.1155 16.5039C13.134 16.4591 13.1618 16.4183 13.197 16.3839C13.2323 16.3495 13.2745 16.3221 13.321 16.3034C13.3675 16.2848 13.4174 16.2751 13.4678 16.2751C13.5183 16.2751 13.5682 16.2848 13.6147 16.3034C13.6612 16.3221 13.7033 16.3495 13.7386 16.3839C13.7739 16.4183 13.8016 16.4591 13.8202 16.5039C13.8388 16.5487 13.8478 16.5966 13.8467 16.6448V17.4365C13.8446 17.5312 13.8038 17.6213 13.733 17.6876C13.6621 17.7539 13.567 17.791 13.4678 17.791C13.3687 17.791 13.2735 17.7539 13.2027 17.6876C13.1318 17.6213 13.091 17.5312 13.0889 17.4365V16.6448ZM21.3858 15.2084C21.3848 15.1602 21.3938 15.1124 21.4124 15.0676C21.4309 15.0228 21.4587 14.9819 21.494 14.9475C21.5292 14.9131 21.5714 14.8857 21.6179 14.8671C21.6644 14.8484 21.7143 14.8388 21.7647 14.8388C21.8152 14.8388 21.8651 14.8484 21.9116 14.8671C21.9581 14.8857 22.0002 14.9131 22.0355 14.9475C22.0708 14.9819 22.0985 15.0228 22.1171 15.0676C22.1357 15.1124 22.1447 15.1602 22.1436 15.2084V16.001C22.1416 16.0957 22.1007 16.1858 22.0299 16.252C21.9591 16.3183 21.8639 16.3554 21.7647 16.3554C21.6656 16.3554 21.5704 16.3183 21.4996 16.252C21.4287 16.1858 21.3879 16.0957 21.3858 16.001V15.2084ZM11.0198 4.5864V3.79464C11.0198 3.69865 11.0597 3.60659 11.1307 3.5387C11.2018 3.47081 11.2981 3.43265 11.3986 3.4326C11.4991 3.4326 11.5955 3.47075 11.6666 3.53864C11.7376 3.60654 11.7776 3.69862 11.7776 3.79464V4.5864C11.7776 4.68242 11.7376 4.77451 11.6666 4.8424C11.5955 4.9103 11.4991 4.94844 11.3986 4.94844C11.2981 4.9484 11.2018 4.91024 11.1307 4.84235C11.0597 4.77446 11.0198 4.68239 11.0198 4.5864ZM11.0198 7.85556V7.06379C11.0187 7.01562 11.0277 6.96773 11.0463 6.92294C11.0649 6.87814 11.0926 6.83733 11.1279 6.8029C11.1632 6.76848 11.2053 6.74113 11.2518 6.72245C11.2983 6.70378 11.3482 6.69417 11.3987 6.69417C11.4491 6.69417 11.499 6.70378 11.5455 6.72245C11.592 6.74113 11.6342 6.76848 11.6695 6.8029C11.7047 6.83733 11.7325 6.87814 11.7511 6.92294C11.7696 6.96773 11.7786 7.01562 11.7776 7.06379V7.85556C11.7786 7.90373 11.7696 7.95162 11.7511 7.99642C11.7325 8.04122 11.7047 8.08203 11.6695 8.11645C11.6342 8.15088 11.592 8.17823 11.5455 8.1969C11.499 8.21557 11.4491 8.22519 11.3987 8.22519C11.3482 8.22519 11.2983 8.21557 11.2518 8.1969C11.2053 8.17823 11.1632 8.15088 11.1279 8.11645C11.0926 8.08203 11.0649 8.04122 11.0463 7.99642C11.0277 7.95162 11.0187 7.90373 11.0198 7.85556ZM8.39175 14.3937C8.38967 14.4884 8.34884 14.5785 8.27801 14.6448C8.20718 14.711 8.11199 14.7482 8.01286 14.7482C7.91372 14.7482 7.81853 14.711 7.7477 14.6448C7.67687 14.5785 7.63604 14.4884 7.63396 14.3937V13.6019C7.6329 13.5538 7.64192 13.5059 7.66048 13.4611C7.67905 13.4163 7.70679 13.3755 7.74208 13.3411C7.77737 13.3066 7.8195 13.2793 7.86599 13.2606C7.91249 13.2419 7.96242 13.2323 8.01286 13.2323C8.06329 13.2323 8.11322 13.2419 8.15972 13.2606C8.20622 13.2793 8.24834 13.3066 8.28363 13.3411C8.31892 13.3755 8.34666 13.4163 8.36523 13.4611C8.38379 13.5059 8.39281 13.5538 8.39175 13.6019V14.3937ZM8.39175 11.1246C8.39281 11.1727 8.38379 11.2206 8.36523 11.2654C8.34666 11.3102 8.31892 11.351 8.28363 11.3854C8.24834 11.4199 8.20622 11.4472 8.15972 11.4659C8.11322 11.4846 8.06329 11.4942 8.01286 11.4942C7.96242 11.4942 7.91249 11.4846 7.86599 11.4659C7.8195 11.4472 7.77737 11.4199 7.74208 11.3854C7.70679 11.351 7.67905 11.3102 7.66048 11.2654C7.64192 11.2206 7.6329 11.1727 7.63396 11.1246V10.3328C7.6329 10.2846 7.64192 10.2367 7.66048 10.1919C7.67905 10.1471 7.70679 10.1063 7.74208 10.0719C7.77737 10.0375 7.8195 10.0101 7.86599 9.99145C7.91249 9.97278 7.96242 9.96316 8.01286 9.96316C8.06329 9.96316 8.11322 9.97278 8.15972 9.99145C8.20622 10.0101 8.24834 10.0375 8.28363 10.0719C8.31892 10.1063 8.34666 10.1471 8.36523 10.1919C8.38379 10.2367 8.39281 10.2846 8.39175 10.3328V11.1246ZM8.01277 8.2176C7.91229 8.21755 7.81594 8.17939 7.7449 8.1115C7.67386 8.04361 7.63396 7.95155 7.63396 7.85556V7.06379C7.6329 7.01562 7.64192 6.96773 7.66048 6.92294C7.67905 6.87814 7.70679 6.83733 7.74208 6.8029C7.77737 6.76848 7.8195 6.74113 7.86599 6.72245C7.91249 6.70378 7.96242 6.69417 8.01286 6.69417C8.06329 6.69417 8.11322 6.70378 8.15972 6.72245C8.20622 6.74113 8.24834 6.76848 8.28363 6.8029C8.31892 6.83733 8.34666 6.87814 8.36523 6.92294C8.38379 6.96773 8.39281 7.01562 8.39175 7.06379V7.85556C8.39175 7.95158 8.35183 8.04366 8.28075 8.11156C8.20968 8.17945 8.11328 8.2176 8.01277 8.2176ZM11.0198 11.1246V10.3328C11.0187 10.2846 11.0277 10.2367 11.0463 10.1919C11.0649 10.1471 11.0926 10.1063 11.1279 10.0719C11.1632 10.0375 11.2053 10.0101 11.2518 9.99145C11.2983 9.97278 11.3482 9.96316 11.3987 9.96316C11.4491 9.96316 11.499 9.97278 11.5455 9.99145C11.592 10.0101 11.6342 10.0375 11.6695 10.0719C11.7047 10.1063 11.7325 10.1471 11.7511 10.1919C11.7696 10.2367 11.7786 10.2846 11.7776 10.3328V11.1246C11.7786 11.1727 11.7696 11.2206 11.7511 11.2654C11.7325 11.3102 11.7047 11.351 11.6695 11.3854C11.6342 11.4199 11.592 11.4472 11.5455 11.4659C11.499 11.4846 11.4491 11.4942 11.3987 11.4942C11.3482 11.4942 11.2983 11.4846 11.2518 11.4659C11.2053 11.4472 11.1632 11.4199 11.1279 11.3854C11.0926 11.351 11.0649 11.3102 11.0463 11.2654C11.0277 11.2206 11.0187 11.1727 11.0198 11.1246ZM8.01277 4.94844C7.91229 4.9484 7.81594 4.91024 7.7449 4.84235C7.67386 4.77446 7.63396 4.68239 7.63396 4.5864V3.79464C7.63396 3.69865 7.67386 3.60659 7.7449 3.5387C7.81594 3.47081 7.91229 3.43265 8.01277 3.4326C8.11328 3.4326 8.20968 3.47075 8.28075 3.53864C8.35183 3.60654 8.39175 3.69862 8.39175 3.79464V4.5864C8.39175 4.68242 8.35183 4.77451 8.28075 4.8424C8.20968 4.9103 8.11328 4.94844 8.01277 4.94844ZM8.39175 17.6627C8.39281 17.7109 8.38379 17.7588 8.36523 17.8036C8.34666 17.8484 8.31892 17.8892 8.28363 17.9236C8.24834 17.958 8.20622 17.9854 8.15972 18.004C8.11322 18.0227 8.06329 18.0323 8.01286 18.0323C7.96242 18.0323 7.91249 18.0227 7.86599 18.004C7.8195 17.9854 7.77737 17.958 7.74208 17.9236C7.70679 17.8892 7.67905 17.8484 7.66048 17.8036C7.64192 17.7588 7.6329 17.7109 7.63396 17.6627V16.8709C7.6329 16.8228 7.64192 16.7749 7.66048 16.7301C7.67905 16.6853 7.70679 16.6445 7.74208 16.61C7.77737 16.5756 7.8195 16.5483 7.86599 16.5296C7.91249 16.5109 7.96242 16.5013 8.01286 16.5013C8.06329 16.5013 8.11322 16.5109 8.15972 16.5296C8.20622 16.5483 8.24834 16.5756 8.28363 16.61C8.31892 16.6445 8.34666 16.6853 8.36523 16.7301C8.38379 16.7749 8.39281 16.8228 8.39175 16.8709V17.6627Z" fill="white" fill-opacity="0.65"/>
</g>
</g>
</svg>
