<svg width="22" height="22" viewBox="0 0 22 22" fill="none" xmlns="http://www.w3.org/2000/svg">
<g id="Vector">
<path d="M11 0.5C8.9233 0.5 6.89323 1.11581 5.16652 2.26957C3.4398 3.42332 2.09399 5.0632 1.29927 6.98182C0.504549 8.90045 0.296615 11.0116 0.701759 13.0484C1.1069 15.0852 2.10693 16.9562 3.57538 18.4246C5.04383 19.8931 6.91475 20.8931 8.95155 21.2982C10.9884 21.7034 13.0996 21.4955 15.0182 20.7007C16.9368 19.906 18.5767 18.5602 19.7304 16.8335C20.8842 15.1068 21.5 13.0767 21.5 11C21.4967 8.21623 20.3894 5.54741 18.421 3.57899C16.4526 1.61057 13.7838 0.503269 11 0.5ZM20.2647 11C20.2658 12.2703 20.0043 13.527 19.4968 14.6915L14.6904 11.736C14.5196 11.6287 14.3281 11.5585 14.1284 11.5301L11.7793 11.2141C11.4761 11.1749 11.1683 11.2326 10.9 11.3791C10.6316 11.5255 10.4166 11.7532 10.2856 12.0294H9.26441C9.22572 12.0294 9.18781 12.0185 9.15504 11.9979C9.12226 11.9773 9.09595 11.9479 9.07912 11.9131L8.68794 11.104C8.59288 10.9064 8.45383 10.7333 8.28145 10.5979C8.10907 10.4624 7.90795 10.3683 7.69353 10.3226L6.59103 10.0859L7.54118 8.42647C7.55932 8.39505 7.58544 8.36898 7.61689 8.35091C7.64835 8.33283 7.68402 8.32338 7.7203 8.32353H9.44044C9.68395 8.32367 9.92347 8.26166 10.1363 8.14338L11.3974 7.44853C11.4941 7.39408 11.5845 7.32918 11.6671 7.255L14.4372 4.75044C14.6802 4.53241 14.8415 4.23799 14.8944 3.91587C14.9474 3.59374 14.8889 3.26318 14.7285 2.97882L14.3971 2.37868C16.1262 3.06257 17.61 4.25008 18.6563 5.78729C19.7025 7.3245 20.2628 9.14054 20.2647 11ZM12.7088 1.89382L13.6507 3.58103C13.6734 3.62178 13.6816 3.66902 13.6739 3.71503C13.6663 3.76104 13.6432 3.80308 13.6085 3.83426L10.8384 6.33882C10.8269 6.34964 10.8141 6.35897 10.8003 6.36662L9.53927 7.0625C9.50779 7.07992 9.4723 7.0888 9.43633 7.08823H7.7203C7.46704 7.08795 7.21819 7.15441 6.9988 7.28091C6.7794 7.40742 6.59722 7.5895 6.47059 7.80882L5.35677 9.75544C5.34907 9.74411 5.34251 9.73204 5.33721 9.71941L4.15442 6.5622C4.13493 6.51329 4.13493 6.45877 4.15442 6.40985L5.3053 3.69735C6.3406 2.88842 7.53629 2.3092 8.81282 1.99823C10.0894 1.68726 11.4175 1.65167 12.7088 1.89382ZM1.7353 11C1.73372 9.42258 2.13708 7.87116 2.90677 6.49426C2.90695 6.66552 2.93799 6.83534 2.99839 6.99559L4.18118 10.1528C4.26531 10.3793 4.40529 10.5809 4.58812 10.7389C4.77096 10.8969 4.99073 11.0062 5.22706 11.0566L7.43412 11.5301C7.46478 11.5368 7.49352 11.5503 7.51814 11.5698C7.54277 11.5892 7.56262 11.6141 7.57618 11.6424L7.96736 12.4515C8.08601 12.6946 8.27041 12.8997 8.49966 13.0435C8.72891 13.1872 8.99383 13.2638 9.26441 13.2647H9.73383L8.85986 15.2206C8.74518 15.4781 8.70854 15.7636 8.75447 16.0417C8.80039 16.3198 8.92687 16.5783 9.11824 16.7853L9.12853 16.7966L11.1544 18.8822C11.1751 18.9058 11.1902 18.9339 11.1984 18.9642C11.2066 18.9945 11.2078 19.0264 11.2018 19.0572L10.9691 20.2647C8.51816 20.2538 6.17115 19.2732 4.44094 17.5373C2.71073 15.8013 1.73799 13.451 1.7353 11ZM12.2435 20.1813L12.4154 19.296C12.4577 19.074 12.4474 18.8451 12.3854 18.6278C12.3234 18.4104 12.2113 18.2106 12.0582 18.0443L12.0479 18.0329L10.0221 15.9473C9.99585 15.9178 9.97871 15.8813 9.97269 15.8422C9.96666 15.8031 9.97201 15.7632 9.98809 15.7271L11.3984 12.5637C11.4163 12.5219 11.4475 12.4873 11.4872 12.4651C11.5268 12.443 11.5727 12.4345 11.6176 12.4412L13.9668 12.7582C13.9952 12.7618 14.0225 12.7713 14.0471 12.786L18.9265 15.7919C18.21 16.9753 17.238 17.9835 16.0818 18.743C14.9255 19.5024 13.6141 19.9938 12.2435 20.1813Z" fill="#ffffffbf"/>
<path d="M11 0.5C8.9233 0.5 6.89323 1.11581 5.16652 2.26957C3.4398 3.42332 2.09399 5.0632 1.29927 6.98182C0.504549 8.90045 0.296615 11.0116 0.701759 13.0484C1.1069 15.0852 2.10693 16.9562 3.57538 18.4246C5.04383 19.8931 6.91475 20.8931 8.95155 21.2982C10.9884 21.7034 13.0996 21.4955 15.0182 20.7007C16.9368 19.906 18.5767 18.5602 19.7304 16.8335C20.8842 15.1068 21.5 13.0767 21.5 11C21.4967 8.21623 20.3894 5.54741 18.421 3.57899C16.4526 1.61057 13.7838 0.503269 11 0.5ZM20.2647 11C20.2658 12.2703 20.0043 13.527 19.4968 14.6915L14.6904 11.736C14.5196 11.6287 14.3281 11.5585 14.1284 11.5301L11.7793 11.2141C11.4761 11.1749 11.1683 11.2326 10.9 11.3791C10.6316 11.5255 10.4166 11.7532 10.2856 12.0294H9.26441C9.22572 12.0294 9.18781 12.0185 9.15504 11.9979C9.12226 11.9773 9.09595 11.9479 9.07912 11.9131L8.68794 11.104C8.59288 10.9064 8.45383 10.7333 8.28145 10.5979C8.10907 10.4624 7.90795 10.3683 7.69353 10.3226L6.59103 10.0859L7.54118 8.42647C7.55932 8.39505 7.58544 8.36898 7.61689 8.35091C7.64835 8.33283 7.68402 8.32338 7.7203 8.32353H9.44044C9.68395 8.32367 9.92347 8.26166 10.1363 8.14338L11.3974 7.44853C11.4941 7.39408 11.5845 7.32918 11.6671 7.255L14.4372 4.75044C14.6802 4.53241 14.8415 4.23799 14.8944 3.91587C14.9474 3.59374 14.8889 3.26318 14.7285 2.97882L14.3971 2.37868C16.1262 3.06257 17.61 4.25008 18.6563 5.78729C19.7025 7.3245 20.2628 9.14054 20.2647 11ZM12.7088 1.89382L13.6507 3.58103C13.6734 3.62178 13.6816 3.66902 13.6739 3.71503C13.6663 3.76104 13.6432 3.80308 13.6085 3.83426L10.8384 6.33882C10.8269 6.34964 10.8141 6.35897 10.8003 6.36662L9.53927 7.0625C9.50779 7.07992 9.4723 7.0888 9.43633 7.08823H7.7203C7.46704 7.08795 7.21819 7.15441 6.9988 7.28091C6.7794 7.40742 6.59722 7.5895 6.47059 7.80882L5.35677 9.75544C5.34907 9.74411 5.34251 9.73204 5.33721 9.71941L4.15442 6.5622C4.13493 6.51329 4.13493 6.45877 4.15442 6.40985L5.3053 3.69735C6.3406 2.88842 7.53629 2.3092 8.81282 1.99823C10.0894 1.68726 11.4175 1.65167 12.7088 1.89382ZM1.7353 11C1.73372 9.42258 2.13708 7.87116 2.90677 6.49426C2.90695 6.66552 2.93799 6.83534 2.99839 6.99559L4.18118 10.1528C4.26531 10.3793 4.40529 10.5809 4.58812 10.7389C4.77096 10.8969 4.99073 11.0062 5.22706 11.0566L7.43412 11.5301C7.46478 11.5368 7.49352 11.5503 7.51814 11.5698C7.54277 11.5892 7.56262 11.6141 7.57618 11.6424L7.96736 12.4515C8.08601 12.6946 8.27041 12.8997 8.49966 13.0435C8.72891 13.1872 8.99383 13.2638 9.26441 13.2647H9.73383L8.85986 15.2206C8.74518 15.4781 8.70854 15.7636 8.75447 16.0417C8.80039 16.3198 8.92687 16.5783 9.11824 16.7853L9.12853 16.7966L11.1544 18.8822C11.1751 18.9058 11.1902 18.9339 11.1984 18.9642C11.2066 18.9945 11.2078 19.0264 11.2018 19.0572L10.9691 20.2647C8.51816 20.2538 6.17115 19.2732 4.44094 17.5373C2.71073 15.8013 1.73799 13.451 1.7353 11ZM12.2435 20.1813L12.4154 19.296C12.4577 19.074 12.4474 18.8451 12.3854 18.6278C12.3234 18.4104 12.2113 18.2106 12.0582 18.0443L12.0479 18.0329L10.0221 15.9473C9.99585 15.9178 9.97871 15.8813 9.97269 15.8422C9.96666 15.8031 9.97201 15.7632 9.98809 15.7271L11.3984 12.5637C11.4163 12.5219 11.4475 12.4873 11.4872 12.4651C11.5268 12.443 11.5727 12.4345 11.6176 12.4412L13.9668 12.7582C13.9952 12.7618 14.0225 12.7713 14.0471 12.786L18.9265 15.7919C18.21 16.9753 17.238 17.9835 16.0818 18.743C14.9255 19.5024 13.6141 19.9938 12.2435 20.1813Z" fill="#ffffffbf" fill-opacity="0.65"/>
</g>
</svg>
