<svg width="22" height="16" viewBox="0 0 22 16" fill="none" xmlns="http://www.w3.org/2000/svg">
<g id="Vector">
<path d="M20.879 5.4522C21.1952 5.38788 21.4795 5.2163 21.6838 4.96647C21.8881 4.71664 21.9998 4.40391 22 4.0812V1.6002C22 1.22889 21.8525 0.872797 21.5899 0.610246C21.3274 0.347695 20.9713 0.200195 20.6 0.200195H1.4C1.0287 0.200195 0.672602 0.347695 0.410051 0.610246C0.1475 0.872797 0 1.22889 0 1.6002V4.0812C0.000211621 4.40391 0.111904 4.71664 0.316178 4.96647C0.520451 5.2163 0.804762 5.38788 1.121 5.4522C1.71092 5.56959 2.24189 5.88788 2.62345 6.35286C3.00501 6.81783 3.21356 7.40071 3.21356 8.0022C3.21356 8.60368 3.00501 9.18656 2.62345 9.65154C2.24189 10.1165 1.71092 10.4348 1.121 10.5522C0.805433 10.6164 0.521636 10.7874 0.31744 11.0364C0.113243 11.2854 0.00113164 11.5972 0 11.9192V14.4002C0 14.7715 0.1475 15.1276 0.410051 15.3901C0.672602 15.6527 1.0287 15.8002 1.4 15.8002H20.6C20.9713 15.8002 21.3274 15.6527 21.5899 15.3901C21.8525 15.1276 22 14.7715 22 14.4002V11.9192C21.9998 11.5965 21.8881 11.2838 21.6838 11.0339C21.4795 10.7841 21.1952 10.6125 20.879 10.5482C20.2891 10.4308 19.7581 10.1125 19.3766 9.64754C18.995 9.18256 18.7864 8.59968 18.7864 7.9982C18.7864 7.39671 18.995 6.81383 19.3766 6.34886C19.7581 5.88388 20.2891 5.56559 20.879 5.4482V5.4522ZM1.2 14.4002V11.9192C1.20017 11.8734 1.21606 11.8291 1.24499 11.7936C1.27393 11.7581 1.31418 11.7336 1.359 11.7242C2.21802 11.5498 2.99032 11.0837 3.54505 10.405C4.09977 9.72634 4.40281 8.87675 4.40281 8.0002C4.40281 7.12365 4.09977 6.27405 3.54505 5.59536C2.99032 4.91667 2.21802 4.45063 1.359 4.2762C1.31333 4.26664 1.27244 4.24142 1.2434 4.2049C1.21436 4.16837 1.19901 4.12284 1.2 4.0762V1.6002C1.2 1.54715 1.22107 1.49628 1.25858 1.45877C1.29609 1.42127 1.34696 1.4002 1.4 1.4002H7.2V14.6002H1.4C1.34696 14.6002 1.29609 14.5791 1.25858 14.5416C1.22107 14.5041 1.2 14.4532 1.2 14.4002ZM20.641 11.7242C20.6858 11.7336 20.7261 11.7581 20.755 11.7936C20.7839 11.8291 20.7998 11.8734 20.8 11.9192V14.4002C20.8 14.4532 20.7789 14.5041 20.7414 14.5416C20.7039 14.5791 20.653 14.6002 20.6 14.6002H8.4V1.4002H20.6C20.653 1.4002 20.7039 1.42127 20.7414 1.45877C20.7789 1.49628 20.8 1.54715 20.8 1.6002V4.0812C20.801 4.12784 20.7856 4.17337 20.7566 4.20989C20.7276 4.24642 20.6867 4.27164 20.641 4.2812C19.782 4.45563 19.0097 4.92167 18.455 5.60036C17.9002 6.27905 17.5972 7.12865 17.5972 8.0052C17.5972 8.88175 17.9002 9.73134 18.455 10.41C19.0097 11.0887 19.782 11.5548 20.641 11.7292V11.7242Z" fill="#ffffffbf"/>
<path d="M20.879 5.4522C21.1952 5.38788 21.4795 5.2163 21.6838 4.96647C21.8881 4.71664 21.9998 4.40391 22 4.0812V1.6002C22 1.22889 21.8525 0.872797 21.5899 0.610246C21.3274 0.347695 20.9713 0.200195 20.6 0.200195H1.4C1.0287 0.200195 0.672602 0.347695 0.410051 0.610246C0.1475 0.872797 0 1.22889 0 1.6002V4.0812C0.000211621 4.40391 0.111904 4.71664 0.316178 4.96647C0.520451 5.2163 0.804762 5.38788 1.121 5.4522C1.71092 5.56959 2.24189 5.88788 2.62345 6.35286C3.00501 6.81783 3.21356 7.40071 3.21356 8.0022C3.21356 8.60368 3.00501 9.18656 2.62345 9.65154C2.24189 10.1165 1.71092 10.4348 1.121 10.5522C0.805433 10.6164 0.521636 10.7874 0.31744 11.0364C0.113243 11.2854 0.00113164 11.5972 0 11.9192V14.4002C0 14.7715 0.1475 15.1276 0.410051 15.3901C0.672602 15.6527 1.0287 15.8002 1.4 15.8002H20.6C20.9713 15.8002 21.3274 15.6527 21.5899 15.3901C21.8525 15.1276 22 14.7715 22 14.4002V11.9192C21.9998 11.5965 21.8881 11.2838 21.6838 11.0339C21.4795 10.7841 21.1952 10.6125 20.879 10.5482C20.2891 10.4308 19.7581 10.1125 19.3766 9.64754C18.995 9.18256 18.7864 8.59968 18.7864 7.9982C18.7864 7.39671 18.995 6.81383 19.3766 6.34886C19.7581 5.88388 20.2891 5.56559 20.879 5.4482V5.4522ZM1.2 14.4002V11.9192C1.20017 11.8734 1.21606 11.8291 1.24499 11.7936C1.27393 11.7581 1.31418 11.7336 1.359 11.7242C2.21802 11.5498 2.99032 11.0837 3.54505 10.405C4.09977 9.72634 4.40281 8.87675 4.40281 8.0002C4.40281 7.12365 4.09977 6.27405 3.54505 5.59536C2.99032 4.91667 2.21802 4.45063 1.359 4.2762C1.31333 4.26664 1.27244 4.24142 1.2434 4.2049C1.21436 4.16837 1.19901 4.12284 1.2 4.0762V1.6002C1.2 1.54715 1.22107 1.49628 1.25858 1.45877C1.29609 1.42127 1.34696 1.4002 1.4 1.4002H7.2V14.6002H1.4C1.34696 14.6002 1.29609 14.5791 1.25858 14.5416C1.22107 14.5041 1.2 14.4532 1.2 14.4002ZM20.641 11.7242C20.6858 11.7336 20.7261 11.7581 20.755 11.7936C20.7839 11.8291 20.7998 11.8734 20.8 11.9192V14.4002C20.8 14.4532 20.7789 14.5041 20.7414 14.5416C20.7039 14.5791 20.653 14.6002 20.6 14.6002H8.4V1.4002H20.6C20.653 1.4002 20.7039 1.42127 20.7414 1.45877C20.7789 1.49628 20.8 1.54715 20.8 1.6002V4.0812C20.801 4.12784 20.7856 4.17337 20.7566 4.20989C20.7276 4.24642 20.6867 4.27164 20.641 4.2812C19.782 4.45563 19.0097 4.92167 18.455 5.60036C17.9002 6.27905 17.5972 7.12865 17.5972 8.0052C17.5972 8.88175 17.9002 9.73134 18.455 10.41C19.0097 11.0887 19.782 11.5548 20.641 11.7292V11.7242Z" fill="white" fill-opacity="0.65"/>
</g>
</svg>
