<svg xmlns="http://www.w3.org/2000/svg" width="21" height="24" viewBox="0 0 21 24" fill="none">
<path d="M19.4362 8.04255H6.70213V5.1383C6.70213 4.13104 7.10226 3.16504 7.8145 2.4528C8.52674 1.74056 9.49274 1.34043 10.5 1.34043C12.3207 1.34043 13.9628 2.64622 14.3113 4.37761C14.349 4.54939 14.4526 4.69948 14.6 4.7955C14.7473 4.89152 14.9265 4.92579 15.0989 4.8909C15.2712 4.85602 15.423 4.75478 15.5214 4.60902C15.6198 4.46327 15.657 4.28467 15.6249 4.11176C15.1412 1.72915 12.9865 0 10.5 0C9.13778 0.00177334 7.83187 0.543698 6.86863 1.50693C5.9054 2.47017 5.36348 3.77608 5.3617 5.1383V8.04255H1.56383C1.14908 8.04255 0.75131 8.20731 0.458035 8.50059C0.16476 8.79386 0 9.19163 0 9.60638V22.117C0 22.5318 0.16476 22.9295 0.458035 23.2228C0.75131 23.5161 1.14908 23.6809 1.56383 23.6809H19.4362C19.8509 23.6809 20.2487 23.5161 20.542 23.2228C20.8352 22.9295 21 22.5318 21 22.117V9.60638C21 9.19163 20.8352 8.79386 20.542 8.50059C20.2487 8.20731 19.8509 8.04255 19.4362 8.04255ZM19.6596 22.117C19.6596 22.1763 19.636 22.2331 19.5941 22.275C19.5522 22.3169 19.4954 22.3404 19.4362 22.3404H1.56383C1.50458 22.3404 1.44776 22.3169 1.40586 22.275C1.36396 22.2331 1.34043 22.1763 1.34043 22.117V9.60638C1.34043 9.54713 1.36396 9.49031 1.40586 9.44841C1.44776 9.40652 1.50458 9.38298 1.56383 9.38298H19.4362C19.4954 9.38298 19.5522 9.40652 19.5941 9.44841C19.636 9.49031 19.6596 9.54713 19.6596 9.60638V22.117ZM10.5 11.617C9.78884 11.618 9.10275 11.8798 8.57178 12.3529C8.04082 12.826 7.70189 13.4775 7.61926 14.1838C7.53663 14.8902 7.71604 15.6023 8.12348 16.1852C8.53091 16.768 9.13805 17.1812 9.82979 17.3462V19.4362C9.82979 19.6139 9.9004 19.7844 10.0261 19.9101C10.1518 20.0358 10.3222 20.1064 10.5 20.1064C10.6778 20.1064 10.8482 20.0358 10.9739 19.9101C11.0996 19.7844 11.1702 19.6139 11.1702 19.4362V17.3462C11.862 17.1812 12.4691 16.768 12.8765 16.1852C13.284 15.6023 13.4634 14.8902 13.3807 14.1838C13.2981 13.4775 12.9592 12.826 12.4282 12.3529C11.8973 11.8798 11.2112 11.618 10.5 11.617ZM10.5 16.0851C10.1907 16.0851 9.88835 15.9934 9.63118 15.8216C9.37401 15.6497 9.17357 15.4055 9.05521 15.1197C8.93685 14.834 8.90588 14.5195 8.96622 14.2162C9.02656 13.9128 9.1755 13.6342 9.39421 13.4155C9.61291 13.1968 9.89156 13.0478 10.1949 12.9875C10.4983 12.9272 10.8127 12.9581 11.0985 13.0765C11.3842 13.1948 11.6284 13.3953 11.8003 13.6525C11.9721 13.9096 12.0638 14.212 12.0638 14.5213C12.0638 14.936 11.8991 15.3338 11.6058 15.6271C11.3125 15.9203 10.9148 16.0851 10.5 16.0851Z" fill="#ffffffbf"/>
<path d="M19.4362 8.04255H6.70213V5.1383C6.70213 4.13104 7.10226 3.16504 7.8145 2.4528C8.52674 1.74056 9.49274 1.34043 10.5 1.34043C12.3207 1.34043 13.9628 2.64622 14.3113 4.37761C14.349 4.54939 14.4526 4.69948 14.6 4.7955C14.7473 4.89152 14.9265 4.92579 15.0989 4.8909C15.2712 4.85602 15.423 4.75478 15.5214 4.60902C15.6198 4.46327 15.657 4.28467 15.6249 4.11176C15.1412 1.72915 12.9865 0 10.5 0C9.13778 0.00177334 7.83187 0.543698 6.86863 1.50693C5.9054 2.47017 5.36348 3.77608 5.3617 5.1383V8.04255H1.56383C1.14908 8.04255 0.75131 8.20731 0.458035 8.50059C0.16476 8.79386 0 9.19163 0 9.60638V22.117C0 22.5318 0.16476 22.9295 0.458035 23.2228C0.75131 23.5161 1.14908 23.6809 1.56383 23.6809H19.4362C19.8509 23.6809 20.2487 23.5161 20.542 23.2228C20.8352 22.9295 21 22.5318 21 22.117V9.60638C21 9.19163 20.8352 8.79386 20.542 8.50059C20.2487 8.20731 19.8509 8.04255 19.4362 8.04255ZM19.6596 22.117C19.6596 22.1763 19.636 22.2331 19.5941 22.275C19.5522 22.3169 19.4954 22.3404 19.4362 22.3404H1.56383C1.50458 22.3404 1.44776 22.3169 1.40586 22.275C1.36396 22.2331 1.34043 22.1763 1.34043 22.117V9.60638C1.34043 9.54713 1.36396 9.49031 1.40586 9.44841C1.44776 9.40652 1.50458 9.38298 1.56383 9.38298H19.4362C19.4954 9.38298 19.5522 9.40652 19.5941 9.44841C19.636 9.49031 19.6596 9.54713 19.6596 9.60638V22.117ZM10.5 11.617C9.78884 11.618 9.10275 11.8798 8.57178 12.3529C8.04082 12.826 7.70189 13.4775 7.61926 14.1838C7.53663 14.8902 7.71604 15.6023 8.12348 16.1852C8.53091 16.768 9.13805 17.1812 9.82979 17.3462V19.4362C9.82979 19.6139 9.9004 19.7844 10.0261 19.9101C10.1518 20.0358 10.3222 20.1064 10.5 20.1064C10.6778 20.1064 10.8482 20.0358 10.9739 19.9101C11.0996 19.7844 11.1702 19.6139 11.1702 19.4362V17.3462C11.862 17.1812 12.4691 16.768 12.8765 16.1852C13.284 15.6023 13.4634 14.8902 13.3807 14.1838C13.2981 13.4775 12.9592 12.826 12.4282 12.3529C11.8973 11.8798 11.2112 11.618 10.5 11.617ZM10.5 16.0851C10.1907 16.0851 9.88835 15.9934 9.63118 15.8216C9.37401 15.6497 9.17357 15.4055 9.05521 15.1197C8.93685 14.834 8.90588 14.5195 8.96622 14.2162C9.02656 13.9128 9.1755 13.6342 9.39421 13.4155C9.61291 13.1968 9.89156 13.0478 10.1949 12.9875C10.4983 12.9272 10.8127 12.9581 11.0985 13.0765C11.3842 13.1948 11.6284 13.3953 11.8003 13.6525C11.9721 13.9096 12.0638 14.212 12.0638 14.5213C12.0638 14.936 11.8991 15.3338 11.6058 15.6271C11.3125 15.9203 10.9148 16.0851 10.5 16.0851Z" fill="white" fill-opacity="0.65"/>
</svg>