<svg width="18" height="22" viewBox="0 0 18 22" fill="none" xmlns="http://www.w3.org/2000/svg">
<path id="Vector" d="M12.7558 13.9057C12.7558 14.0708 12.6933 14.2292 12.5821 14.3459C12.4709 14.4627 12.3201 14.5283 12.1628 14.5283H5.83721C5.67993 14.5283 5.52909 14.4627 5.41788 14.3459C5.30667 14.2292 5.24419 14.0708 5.24419 13.9057C5.24419 13.7405 5.30667 13.5822 5.41788 13.4654C5.52909 13.3486 5.67993 13.283 5.83721 13.283H12.1628C12.3201 13.283 12.4709 13.3486 12.5821 13.4654C12.6933 13.5822 12.7558 13.7405 12.7558 13.9057ZM12.1628 9.96227H5.83721C5.67993 9.96227 5.52909 10.0279 5.41788 10.1446C5.30667 10.2614 5.24419 10.4198 5.24419 10.5849C5.24419 10.75 5.30667 10.9084 5.41788 11.0252C5.52909 11.142 5.67993 11.2076 5.83721 11.2076H12.1628C12.3201 11.2076 12.4709 11.142 12.5821 11.0252C12.6933 10.9084 12.7558 10.75 12.7558 10.5849C12.7558 10.4198 12.6933 10.2614 12.5821 10.1446C12.4709 10.0279 12.3201 9.96227 12.1628 9.96227ZM17.5 3.11322V20.5472C17.5 20.9325 17.3542 21.302 17.0947 21.5745C16.8352 21.8469 16.4833 22 16.1163 22H1.88372C1.51674 22 1.16478 21.8469 0.905283 21.5745C0.645785 21.302 0.5 20.9325 0.5 20.5472V3.11322C0.5 2.72791 0.645785 2.35837 0.905283 2.08592C1.16478 1.81346 1.51674 1.66039 1.88372 1.66039H5.5575C5.98349 1.13956 6.51165 0.721534 7.10582 0.434952C7.69999 0.148371 8.34613 0 9 0C9.65387 0 10.3 0.148371 10.8942 0.434952C11.4884 0.721534 12.0165 1.13956 12.4425 1.66039H16.1163C16.4833 1.66039 16.8352 1.81346 17.0947 2.08592C17.3542 2.35837 17.5 2.72791 17.5 3.11322ZM5.63953 4.7736V4.98114H12.3605V4.7736C12.3605 3.83783 12.0064 2.9404 11.3762 2.27871C10.746 1.61703 9.89125 1.2453 9 1.2453C8.10875 1.2453 7.254 1.61703 6.62379 2.27871C5.99358 2.9404 5.63953 3.83783 5.63953 4.7736ZM16.314 3.11322C16.314 3.05818 16.2931 3.00539 16.2561 2.96646C16.219 2.92754 16.1687 2.90567 16.1163 2.90567H13.1838C13.4237 3.49618 13.5471 4.13162 13.5465 4.7736V5.60379C13.5465 5.76892 13.484 5.92729 13.3728 6.04406C13.2616 6.16083 13.1108 6.22643 12.9535 6.22643H5.04651C4.88923 6.22643 4.73839 6.16083 4.62718 6.04406C4.51597 5.92729 4.45349 5.76892 4.45349 5.60379V4.7736C4.45293 4.13162 4.57632 3.49618 4.81622 2.90567H1.88372C1.83129 2.90567 1.78102 2.92754 1.74394 2.96646C1.70687 3.00539 1.68605 3.05818 1.68605 3.11322V20.5472C1.68605 20.6022 1.70687 20.655 1.74394 20.6939C1.78102 20.7329 1.83129 20.7547 1.88372 20.7547H16.1163C16.1687 20.7547 16.219 20.7329 16.2561 20.6939C16.2931 20.655 16.314 20.6022 16.314 20.5472V3.11322Z" fill="white"/>
</svg>
