<svg width="22" height="22" viewBox="0 0 22 22" fill="none" xmlns="http://www.w3.org/2000/svg">
<g id="Vector">
<path d="M11 0.21875C8.86767 0.21875 6.78323 0.851059 5.01026 2.03572C3.2373 3.22038 1.85544 4.90418 1.03943 6.87419C0.223421 8.84421 0.00991669 11.012 0.425914 13.1033C0.84191 15.1947 1.86872 17.1157 3.37651 18.6235C4.88429 20.1313 6.80533 21.1581 8.89669 21.5741C10.988 21.9901 13.1558 21.7766 15.1258 20.9606C17.0958 20.1446 18.7796 18.7627 19.9643 16.9897C21.1489 15.2168 21.7813 13.1323 21.7813 11C21.7779 8.14166 20.6409 5.40136 18.6198 3.38021C16.5986 1.35906 13.8583 0.222107 11 0.21875ZM11 20.5129C9.11854 20.5129 7.27932 19.9549 5.71494 18.9097C4.15056 17.8644 2.93127 16.3787 2.21126 14.6404C1.49125 12.9022 1.30287 10.9894 1.66992 9.14413C2.03698 7.29882 2.94299 5.60379 4.27339 4.27339C5.60379 2.94299 7.29882 2.03698 9.14414 1.66992C10.9895 1.30286 12.9022 1.49125 14.6404 2.21126C16.3787 2.93126 17.8644 4.15055 18.9097 5.71493C19.955 7.27932 20.5129 9.11853 20.5129 11C20.5101 13.5221 19.5069 15.9401 17.7235 17.7235C15.9401 19.5069 13.5221 20.5101 11 20.5129ZM15.7903 5.35887L9.02556 8.74122C8.90245 8.80265 8.80265 8.90244 8.74123 9.02555L5.35887 15.7903C5.3106 15.887 5.28783 15.9944 5.29275 16.1024C5.29767 16.2103 5.3301 16.3153 5.38696 16.4072C5.44383 16.4991 5.52324 16.575 5.61767 16.6276C5.71209 16.6802 5.81839 16.7078 5.92648 16.7077C6.02476 16.7076 6.12168 16.6848 6.20975 16.6411L12.9745 13.2588C13.0976 13.1974 13.1974 13.0976 13.2588 12.9744L16.6411 6.20974C16.7007 6.09069 16.7212 5.95592 16.6999 5.82452C16.6786 5.69313 16.6165 5.57177 16.5224 5.47765C16.4282 5.38353 16.3069 5.3214 16.1755 5.30009C16.0441 5.27877 15.9093 5.29933 15.7903 5.35887ZM12.2187 12.2187L7.34495 14.6551L9.77602 9.7813L14.6498 7.35023L12.2187 12.2187Z" fill="#ffffffbf"/>
<path d="M11 0.21875C8.86767 0.21875 6.78323 0.851059 5.01026 2.03572C3.2373 3.22038 1.85544 4.90418 1.03943 6.87419C0.223421 8.84421 0.00991669 11.012 0.425914 13.1033C0.84191 15.1947 1.86872 17.1157 3.37651 18.6235C4.88429 20.1313 6.80533 21.1581 8.89669 21.5741C10.988 21.9901 13.1558 21.7766 15.1258 20.9606C17.0958 20.1446 18.7796 18.7627 19.9643 16.9897C21.1489 15.2168 21.7813 13.1323 21.7813 11C21.7779 8.14166 20.6409 5.40136 18.6198 3.38021C16.5986 1.35906 13.8583 0.222107 11 0.21875ZM11 20.5129C9.11854 20.5129 7.27932 19.9549 5.71494 18.9097C4.15056 17.8644 2.93127 16.3787 2.21126 14.6404C1.49125 12.9022 1.30287 10.9894 1.66992 9.14413C2.03698 7.29882 2.94299 5.60379 4.27339 4.27339C5.60379 2.94299 7.29882 2.03698 9.14414 1.66992C10.9895 1.30286 12.9022 1.49125 14.6404 2.21126C16.3787 2.93126 17.8644 4.15055 18.9097 5.71493C19.955 7.27932 20.5129 9.11853 20.5129 11C20.5101 13.5221 19.5069 15.9401 17.7235 17.7235C15.9401 19.5069 13.5221 20.5101 11 20.5129ZM15.7903 5.35887L9.02556 8.74122C8.90245 8.80265 8.80265 8.90244 8.74123 9.02555L5.35887 15.7903C5.3106 15.887 5.28783 15.9944 5.29275 16.1024C5.29767 16.2103 5.3301 16.3153 5.38696 16.4072C5.44383 16.4991 5.52324 16.575 5.61767 16.6276C5.71209 16.6802 5.81839 16.7078 5.92648 16.7077C6.02476 16.7076 6.12168 16.6848 6.20975 16.6411L12.9745 13.2588C13.0976 13.1974 13.1974 13.0976 13.2588 12.9744L16.6411 6.20974C16.7007 6.09069 16.7212 5.95592 16.6999 5.82452C16.6786 5.69313 16.6165 5.57177 16.5224 5.47765C16.4282 5.38353 16.3069 5.3214 16.1755 5.30009C16.0441 5.27877 15.9093 5.29933 15.7903 5.35887ZM12.2187 12.2187L7.34495 14.6551L9.77602 9.7813L14.6498 7.35023L12.2187 12.2187Z" fill="white" fill-opacity="0.65"/>
</g>
</svg>
