<svg width="22" height="22" viewBox="0 0 22 22" fill="none" xmlns="http://www.w3.org/2000/svg">
<g id="Users">
<g id="Vector">
<path d="M10.0759 13.5711C10.9974 12.9577 11.6969 12.064 12.0712 11.0223C12.4454 9.98052 12.4744 8.84598 12.154 7.78644C11.8336 6.72689 11.1807 5.79859 10.2918 5.13881C9.40301 4.47903 8.32546 4.1228 7.21852 4.1228C6.11158 4.1228 5.03402 4.47903 4.1452 5.13881C3.25637 5.79859 2.60347 6.72689 2.28303 7.78644C1.9626 8.84598 1.99165 9.98052 2.36588 11.0223C2.74012 12.064 3.43967 12.9577 4.3611 13.5711C2.69433 14.1855 1.27087 15.3222 0.303127 16.8118C0.252266 16.8874 0.216937 16.9724 0.199196 17.0618C0.181454 17.1511 0.181652 17.2431 0.19978 17.3324C0.217908 17.4217 0.253602 17.5065 0.30479 17.5819C0.355977 17.6573 0.421636 17.7217 0.49795 17.7715C0.574264 17.8212 0.65971 17.8554 0.749322 17.8718C0.838934 17.8883 0.930924 17.8868 1.01995 17.8674C1.10897 17.848 1.19324 17.8111 1.26788 17.7588C1.34251 17.7065 1.40601 17.64 1.45469 17.5629C2.07893 16.6028 2.93312 15.8139 3.93969 15.2677C4.94626 14.7215 6.07332 14.4355 7.21852 14.4355C8.36372 14.4355 9.49078 14.7215 10.4973 15.2677C11.5039 15.8139 12.3581 16.6028 12.9823 17.5629C13.0832 17.7128 13.2389 17.817 13.416 17.8529C13.593 17.8889 13.777 17.8537 13.9283 17.755C14.0796 17.6563 14.186 17.5021 14.2245 17.3256C14.263 17.1491 14.2304 16.9645 14.1339 16.8118C13.1662 15.3222 11.7427 14.1855 10.0759 13.5711ZM3.43727 9.28115C3.43727 8.53328 3.65903 7.80222 4.07452 7.18039C4.49001 6.55857 5.08056 6.07392 5.7715 5.78773C6.46243 5.50153 7.22271 5.42665 7.9562 5.57255C8.68969 5.71845 9.36345 6.07858 9.89227 6.6074C10.4211 7.13621 10.7812 7.80997 10.9271 8.54346C11.073 9.27695 10.9981 10.0372 10.7119 10.7282C10.4257 11.4191 9.94109 12.0096 9.31927 12.4251C8.69744 12.8406 7.96638 13.0624 7.21852 13.0624C6.21602 13.0613 5.2549 12.6625 4.54603 11.9536C3.83715 11.2448 3.43841 10.2836 3.43727 9.28115ZM21.4962 17.7632C21.3435 17.8628 21.1574 17.8976 20.979 17.8601C20.8006 17.8225 20.6445 17.7156 20.5448 17.5629C19.9214 16.6023 19.0673 15.813 18.0605 15.267C17.0537 14.7211 15.9263 14.4359 14.781 14.4374C14.5987 14.4374 14.4238 14.365 14.2949 14.236C14.166 14.1071 14.0935 13.9322 14.0935 13.7499C14.0935 13.5676 14.166 13.3927 14.2949 13.2638C14.4238 13.1348 14.5987 13.0624 14.781 13.0624C15.3379 13.0619 15.8877 12.9384 16.3913 12.7007C16.8949 12.463 17.3398 12.1171 17.6941 11.6875C18.0485 11.258 18.3037 10.7555 18.4413 10.216C18.579 9.67639 18.5958 9.11308 18.4905 8.56627C18.3852 8.01947 18.1605 7.50266 17.8323 7.05278C17.5042 6.6029 17.0807 6.23106 16.5922 5.96381C16.1036 5.69657 15.5621 5.54052 15.0063 5.50683C14.4504 5.47313 13.894 5.56261 13.3768 5.76888C13.2925 5.80534 13.2017 5.82452 13.1098 5.8253C13.0179 5.82607 12.9268 5.80843 12.8419 5.7734C12.757 5.73837 12.6799 5.68668 12.6153 5.62137C12.5507 5.55606 12.4998 5.47846 12.4657 5.39315C12.4315 5.30785 12.4149 5.21657 12.4166 5.12471C12.4184 5.03285 12.4385 4.94227 12.4759 4.85833C12.5132 4.77439 12.567 4.69878 12.6341 4.63599C12.7011 4.57319 12.7801 4.52447 12.8663 4.49271C14.0501 4.02061 15.3667 4.00362 16.5623 4.44502C17.7578 4.88641 18.7475 5.75492 19.3405 6.88299C19.9335 8.01105 20.0877 9.31875 19.7734 10.5538C19.4591 11.7889 18.6985 12.8638 17.6384 13.5711C19.3052 14.1855 20.7287 15.3222 21.6964 16.8118C21.796 16.9646 21.8308 17.1506 21.7933 17.329C21.7557 17.5074 21.6489 17.6636 21.4962 17.7632Z" fill="#ffffffbf"/>
<path d="M10.0759 13.5711C10.9974 12.9577 11.6969 12.064 12.0712 11.0223C12.4454 9.98052 12.4744 8.84598 12.154 7.78644C11.8336 6.72689 11.1807 5.79859 10.2918 5.13881C9.40301 4.47903 8.32546 4.1228 7.21852 4.1228C6.11158 4.1228 5.03402 4.47903 4.1452 5.13881C3.25637 5.79859 2.60347 6.72689 2.28303 7.78644C1.9626 8.84598 1.99165 9.98052 2.36588 11.0223C2.74012 12.064 3.43967 12.9577 4.3611 13.5711C2.69433 14.1855 1.27087 15.3222 0.303127 16.8118C0.252266 16.8874 0.216937 16.9724 0.199196 17.0618C0.181454 17.1511 0.181652 17.2431 0.19978 17.3324C0.217908 17.4217 0.253602 17.5065 0.30479 17.5819C0.355977 17.6573 0.421636 17.7217 0.49795 17.7715C0.574264 17.8212 0.65971 17.8554 0.749322 17.8718C0.838934 17.8883 0.930924 17.8868 1.01995 17.8674C1.10897 17.848 1.19324 17.8111 1.26788 17.7588C1.34251 17.7065 1.40601 17.64 1.45469 17.5629C2.07893 16.6028 2.93312 15.8139 3.93969 15.2677C4.94626 14.7215 6.07332 14.4355 7.21852 14.4355C8.36372 14.4355 9.49078 14.7215 10.4973 15.2677C11.5039 15.8139 12.3581 16.6028 12.9823 17.5629C13.0832 17.7128 13.2389 17.817 13.416 17.8529C13.593 17.8889 13.777 17.8537 13.9283 17.755C14.0796 17.6563 14.186 17.5021 14.2245 17.3256C14.263 17.1491 14.2304 16.9645 14.1339 16.8118C13.1662 15.3222 11.7427 14.1855 10.0759 13.5711ZM3.43727 9.28115C3.43727 8.53328 3.65903 7.80222 4.07452 7.18039C4.49001 6.55857 5.08056 6.07392 5.7715 5.78773C6.46243 5.50153 7.22271 5.42665 7.9562 5.57255C8.68969 5.71845 9.36345 6.07858 9.89227 6.6074C10.4211 7.13621 10.7812 7.80997 10.9271 8.54346C11.073 9.27695 10.9981 10.0372 10.7119 10.7282C10.4257 11.4191 9.94109 12.0096 9.31927 12.4251C8.69744 12.8406 7.96638 13.0624 7.21852 13.0624C6.21602 13.0613 5.2549 12.6625 4.54603 11.9536C3.83715 11.2448 3.43841 10.2836 3.43727 9.28115ZM21.4962 17.7632C21.3435 17.8628 21.1574 17.8976 20.979 17.8601C20.8006 17.8225 20.6445 17.7156 20.5448 17.5629C19.9214 16.6023 19.0673 15.813 18.0605 15.267C17.0537 14.7211 15.9263 14.4359 14.781 14.4374C14.5987 14.4374 14.4238 14.365 14.2949 14.236C14.166 14.1071 14.0935 13.9322 14.0935 13.7499C14.0935 13.5676 14.166 13.3927 14.2949 13.2638C14.4238 13.1348 14.5987 13.0624 14.781 13.0624C15.3379 13.0619 15.8877 12.9384 16.3913 12.7007C16.8949 12.463 17.3398 12.1171 17.6941 11.6875C18.0485 11.258 18.3037 10.7555 18.4413 10.216C18.579 9.67639 18.5958 9.11308 18.4905 8.56627C18.3852 8.01947 18.1605 7.50266 17.8323 7.05278C17.5042 6.6029 17.0807 6.23106 16.5922 5.96381C16.1036 5.69657 15.5621 5.54052 15.0063 5.50683C14.4504 5.47313 13.894 5.56261 13.3768 5.76888C13.2925 5.80534 13.2017 5.82452 13.1098 5.8253C13.0179 5.82607 12.9268 5.80843 12.8419 5.7734C12.757 5.73837 12.6799 5.68668 12.6153 5.62137C12.5507 5.55606 12.4998 5.47846 12.4657 5.39315C12.4315 5.30785 12.4149 5.21657 12.4166 5.12471C12.4184 5.03285 12.4385 4.94227 12.4759 4.85833C12.5132 4.77439 12.567 4.69878 12.6341 4.63599C12.7011 4.57319 12.7801 4.52447 12.8663 4.49271C14.0501 4.02061 15.3667 4.00362 16.5623 4.44502C17.7578 4.88641 18.7475 5.75492 19.3405 6.88299C19.9335 8.01105 20.0877 9.31875 19.7734 10.5538C19.4591 11.7889 18.6985 12.8638 17.6384 13.5711C19.3052 14.1855 20.7287 15.3222 21.6964 16.8118C21.796 16.9646 21.8308 17.1506 21.7933 17.329C21.7557 17.5074 21.6489 17.6636 21.4962 17.7632Z" fill="white" fill-opacity="0.65"/>
</g>
</g>
</svg>
